<svg width="326" height="74" viewBox="0 0 326 74" fill="none" xmlns="http://www.w3.org/2000/svg">
<path d="M38.6615 60.8536V13.5021C48.7703 16.517 56.2188 25.9163 56.2188 37.0892C56.2188 48.262 48.7703 57.6613 38.6615 60.8536ZM31.5677 5.52148V32.1235L27.4887 28.0445L26.9567 17.9357L31.213 5.52148C28.5528 5.52148 25.8926 5.87618 23.4097 6.58556L21.4589 12.6153L15.7838 9.7778C13.4783 11.1966 11.3502 12.6153 9.39936 14.5662L20.0402 19.8865L20.3948 25.9163L14.3651 25.5616L9.04467 14.9208C7.27121 16.8717 5.67509 18.8225 4.25632 21.128L7.09386 26.8031L1.06408 28.7539C0.354693 31.2367 0 33.8969 0 36.5571L12.5916 32.3008L22.7003 32.8328L26.7793 36.9118L22.7003 40.9908L12.5916 41.5228L0 37.4438C0 40.104 0.354693 42.7642 1.06408 45.2471L7.09386 47.1979L4.25632 52.873C5.49774 55.1785 7.09386 57.3067 9.04467 59.0801L14.3651 48.4393L20.3948 48.0846L20.0402 54.1144L9.39936 59.4348C11.3502 61.2083 13.301 62.8044 15.6065 64.2232L21.2816 61.3856L23.2324 67.4154C25.7152 68.1248 28.3754 68.4795 31.0356 68.4795L26.7793 55.8879L27.3114 45.7791L31.3903 41.7002V68.4795C48.9476 68.4795 63.1354 54.2918 63.1354 36.7345C63.1354 19.1772 49.125 5.52148 31.5677 5.52148Z" fill="#FF00AF"/>
<path fill-rule="evenodd" clip-rule="evenodd" d="M160.676 16.1621C157.484 16.1621 155.001 17.0488 153.228 18.8223C151.454 20.5958 150.568 22.9013 150.568 25.9162V28.5764H145.425V33.01H150.568V58.7253H156.065V33.1874H164.755V28.5764H155.888V25.9162C155.888 24.1427 156.243 22.9013 157.129 22.0145C158.016 21.1278 159.258 20.5958 160.854 20.5958C161.563 20.5958 162.45 20.7731 163.159 20.9505C163.869 21.1278 164.578 21.4825 165.11 22.0145L166.884 17.9356C166.174 17.4035 165.287 16.8715 164.046 16.5168C162.982 16.3395 161.918 16.1621 160.676 16.1621ZM102.506 33.1868C101.442 31.9454 100.2 30.7039 98.7816 29.9945C96.6534 28.9305 94.3479 28.2211 91.8651 28.2211C88.8502 28.2211 86.3673 28.9305 84.0618 30.1719C81.7563 31.4133 79.9829 33.1868 78.5641 35.4923C77.1453 37.7978 76.6133 40.458 76.6133 43.6502C76.6133 46.6651 77.3227 49.5027 78.5641 51.8082C79.9829 54.1137 81.7563 55.8871 84.0618 57.3059C86.3673 58.5473 89.0275 59.2567 91.8651 59.2567C94.5253 59.2567 96.8308 58.7247 98.9589 57.4832C100.378 56.5965 101.619 55.5324 102.683 54.1137V58.902H108.004V16.5162H102.506V33.1868ZM101.264 49.3253C100.378 50.9214 99.1363 52.1629 97.5402 53.0496C95.944 53.9363 94.3479 54.291 92.3971 54.291C90.4463 54.291 88.6728 53.9363 87.2541 53.0496C85.658 52.1629 84.5939 50.9214 83.5298 49.3253C82.6431 47.7292 82.111 45.7784 82.111 43.6502C82.111 41.5221 82.6431 39.5713 83.5298 37.9751C84.4165 36.379 85.658 35.1376 87.2541 34.2509C88.8502 33.3641 90.4463 33.0094 92.3971 33.0094C94.3479 33.0094 95.944 33.3641 97.5402 34.2509C99.1363 35.1376 100.378 36.379 101.264 37.9751C102.151 39.5713 102.683 41.3447 102.683 43.6502C102.683 45.9557 102.151 47.7292 101.264 49.3253ZM136.912 30.3499C134.606 29.1085 132.123 28.3991 129.108 28.3991C126.271 28.3991 123.611 29.1085 121.305 30.3499C119 31.5913 117.226 33.5421 115.807 35.8476C114.566 38.1531 113.857 40.8133 113.857 43.8282C113.857 46.8431 114.566 49.5033 115.807 51.8088C117.226 54.1143 119 55.8878 121.482 57.3066C123.965 58.7253 126.803 59.2574 129.995 59.2574C132.478 59.2574 134.783 58.9027 136.734 58.016C138.685 57.1292 140.459 55.8878 141.877 54.2917L138.862 50.7447C137.798 51.9862 136.557 52.8729 134.961 53.4049C133.542 53.937 131.946 54.2917 129.995 54.2917C127.867 54.2917 125.916 53.937 124.32 53.0502C122.724 52.1635 121.305 50.9221 120.418 49.326C119.709 48.0845 119.354 46.8431 119.177 45.4244H143.651V44.5376V43.6509C143.651 40.4587 142.941 37.7985 141.7 35.4929C140.991 33.3648 139.217 31.5913 136.912 30.3499ZM124.143 34.2515C125.561 33.3648 127.335 33.0101 129.286 33.0101C131.237 33.0101 133.01 33.3648 134.429 34.2515C135.848 35.1383 137.089 36.3797 137.798 37.7985C138.508 39.0399 138.862 40.2813 138.862 41.7001H119.354C119.532 40.2813 119.886 39.0399 120.596 37.9758C121.482 36.3797 122.547 35.1383 124.143 34.2515ZM170.074 28.5773H175.572V58.7262H170.074V28.5773ZM197.564 33.1874C195.614 33.1874 193.84 33.5421 192.244 34.4289C190.648 35.3156 189.406 36.557 188.52 38.1531C187.633 39.7493 187.101 41.7001 187.101 43.8282C187.101 45.9564 187.633 47.9072 188.52 49.5033C189.406 51.0994 190.648 52.3409 192.244 53.2276C193.84 54.1143 195.614 54.469 197.564 54.469C199.16 54.469 200.757 54.1143 202.175 53.4049C203.594 52.8729 204.658 51.6315 205.722 50.2127L209.801 52.8729C208.56 55.0011 206.964 56.5972 204.836 57.6613C202.707 58.7253 200.225 59.2574 197.564 59.2574C194.549 59.2574 191.889 58.7253 189.406 57.3066C186.924 55.8878 185.15 54.1143 183.731 51.8088C182.313 49.5033 181.603 46.8431 181.603 43.8282C181.603 40.8133 182.313 38.1531 183.731 35.8476C185.15 33.5421 186.924 31.5913 189.406 30.3499C191.712 29.1085 194.549 28.3991 197.564 28.3991C200.225 28.3991 202.707 28.9311 204.836 29.9952C206.964 31.0593 208.56 32.6554 209.801 34.7836L205.722 37.4438C204.836 36.025 203.594 34.9609 202.175 34.2515C200.757 33.5421 199.16 33.1874 197.564 33.1874ZM237.289 29.8172C235.339 28.9305 233.211 28.3984 230.728 28.3984C228.067 28.3984 225.585 28.9305 223.456 29.9945C222.038 30.7039 220.974 31.768 219.91 33.0094V16.5162H214.412V58.902H219.91V43.2955C219.91 41.1674 220.264 39.2166 221.151 37.7978C221.86 36.379 223.102 35.1376 224.521 34.4282C225.939 33.7188 227.713 33.3641 229.664 33.3641C232.324 33.3641 234.275 34.0735 235.693 35.6696C237.112 37.0884 237.822 39.3939 237.822 42.2315V59.0794H243.319V41.6994C243.319 38.6845 242.787 36.2017 241.723 34.4282C240.482 32.1227 239.063 30.7039 237.289 29.8172ZM255.024 29.4632C257.33 28.7538 259.458 28.3991 261.941 28.3991C266.197 28.3991 269.389 29.2858 271.163 31.414C273.468 33.3648 274.532 36.557 274.532 40.636V58.9027H269.389V54.8237C268.68 56.0651 267.616 56.9519 266.374 57.6613C264.601 58.7253 262.295 59.2574 259.458 59.2574C257.33 59.2574 255.379 58.9027 253.605 58.1933C251.832 57.4839 250.591 56.4198 249.704 55.0011C248.817 53.5823 248.285 52.1635 248.285 50.3901C248.285 48.7939 248.817 47.3752 249.527 45.9564C250.413 44.715 251.655 43.6509 253.428 42.7642C255.202 41.8774 257.507 41.5227 260.522 41.5227H269.212V40.4587C269.212 38.1531 268.68 36.3797 267.261 35.1383C266.02 33.8968 263.892 33.1874 261.231 33.1874C259.458 33.1874 257.684 33.5421 255.911 34.0742C254.315 34.6062 252.896 35.3156 251.655 36.3797L249.349 32.3007C250.945 31.0593 252.896 30.1726 255.024 29.4632ZM260.877 55.0011C262.827 55.0011 264.601 54.469 266.197 53.5823C267.616 52.6956 268.68 51.2768 269.567 49.5033V45.247H261.054C258.394 45.247 256.443 45.779 255.556 46.6658C254.67 47.5525 254.138 48.7939 254.138 50.0354C254.138 51.4541 254.67 52.6956 255.911 53.5823C257.152 54.469 258.749 55.0011 260.877 55.0011ZM288.01 28.5773H282.513V58.7262H288.01V28.5773ZM318.335 29.8179C320.286 30.7046 321.705 32.1234 322.769 34.0742C323.833 36.025 324.365 38.5078 324.365 41.5227V58.9027H318.867V42.0548C318.867 39.2172 318.158 36.9117 316.739 35.4929C315.32 33.8968 313.37 33.1874 310.709 33.1874C308.759 33.1874 306.985 33.5421 305.566 34.2515C304.148 34.9609 302.906 36.2023 302.197 37.6211C301.31 39.0399 300.955 40.9907 300.955 43.1188V58.7253H295.458V28.5764H300.778V33.1874C301.665 31.946 302.906 30.8819 304.502 29.9952C306.631 28.9311 309.113 28.3991 311.774 28.3991C314.256 28.3991 316.385 28.9311 318.335 29.8179Z" fill="black"/>
<path fill-rule="evenodd" clip-rule="evenodd" d="M283.351 5.875L287.342 12.4708L291.241 5.875H293.281V16.5158H290.986L290.967 10.1568L287.833 15.3679H286.74L283.606 10.2297V16.5158H281.311V5.875H283.351ZM302.684 12.07H297.728V14.5298H303.522V16.5158H295.287V5.875H303.322V7.84282H297.728V10.1386H302.684V12.07ZM313.742 5.875H304.486V7.87926H307.875V16.5158H310.353V7.87926H313.742V5.875ZM324.366 16.5158H321.779L320.831 14.2382H315.912L314.964 16.5158H312.45L317.169 5.875H319.592L324.366 16.5158ZM318.371 8.29834L316.677 12.3615H316.695H320.066L318.371 8.29834Z" fill="black"/>
</svg>
